<?xml version="1.0" encoding="UTF-8" standalone="no"?>
<svg
   xmlns:dc="http://purl.org/dc/elements/1.1/"
   xmlns:cc="http://creativecommons.org/ns#"
   xmlns:rdf="http://www.w3.org/1999/02/22-rdf-syntax-ns#"
   xmlns:svg="http://www.w3.org/2000/svg"
   xmlns="http://www.w3.org/2000/svg"
   xmlns:sodipodi="http://sodipodi.sourceforge.net/DTD/sodipodi-0.dtd"
   xmlns:inkscape="http://www.inkscape.org/namespaces/inkscape"
   version="1.1"
   id="svg2"
   xml:space="preserve"
   width="213.39867"
   height="30.6632"
   viewBox="0 0 213.39867 30.6632"
   sodipodi:docname="bcybrand copie.ai"><metadata
     id="metadata8"><rdf:RDF><cc:Work
         rdf:about=""><dc:format>image/svg+xml</dc:format><dc:type
           rdf:resource="http://purl.org/dc/dcmitype/StillImage" /></cc:Work></rdf:RDF></metadata><defs
     id="defs6"><clipPath
       clipPathUnits="userSpaceOnUse"
       id="clipPath18"><path
         d="M 0,22.997 H 160.049 V 0 H 0 Z"
         id="path16" /></clipPath><clipPath
       clipPathUnits="userSpaceOnUse"
       id="clipPath30"><path
         d="M 0,22.997 H 160.049 V 0 H 0 Z"
         id="path28" /></clipPath><clipPath
       clipPathUnits="userSpaceOnUse"
       id="clipPath42"><path
         d="M 0,22.997 H 160.049 V 0 H 0 Z"
         id="path40" /></clipPath></defs><sodipodi:namedview
     pagecolor="#ffffff"
     bordercolor="#666666"
     borderopacity="1"
     objecttolerance="10"
     gridtolerance="10"
     guidetolerance="10"
     inkscape:pageopacity="0"
     inkscape:pageshadow="2"
     inkscape:window-width="640"
     inkscape:window-height="480"
     id="namedview4" /><g
     id="g10"
     inkscape:groupmode="layer"
     inkscape:label="bcybrand copie"
     transform="matrix(1.3333333,0,0,-1.3333333,0,30.6632)"><g
       id="g12"><g
         id="g14"
         clip-path="url(#clipPath18)"><g
           aria-label="CYPHER"
           transform="matrix(1,0,0,-1,88.9253,5.6709)"
           id="text22"
           style="font-variant:normal;font-weight:normal;font-stretch:normal;font-size:17.75px;font-family:HelveticaNeue;-inkscape-font-specification:HelveticaNeue;writing-mode:lr-tb;fill:#345eea;fill-opacity:1;fill-rule:nonzero;stroke:none"><path
             d="m 11.431763,-11.943115 v 1.846069 q -0.884034,-0.823364 -1.8894046,-1.230713 -0.9967041,-0.407348 -2.1234131,-0.407348 -2.21875,0 -3.3974609,1.360717 -1.178711,1.3520511 -1.178711,3.9174808 0,2.5567627 1.178711,3.9174805 1.1787109,1.3520508 3.3974609,1.3520508 1.126709,0 2.1234131,-0.4073487 1.0053706,-0.4073486 1.8894046,-1.2307129 v 1.8287354 q -0.918701,0.62402344 -1.9500735,0.93603515 -1.0227051,0.31201172 -2.1667481,0.31201172 -2.9381103,0 -4.6281738,-1.79406737 -1.6900635,-1.8027344 -1.6900635,-4.9141846 0,-3.1201172 1.6900635,-4.9141848 1.6900635,-1.802734 4.6281738,-1.802734 1.161377,0 2.184082,0.312012 1.0313726,0.303344 1.9327396,0.918701 z"
             id="path52" /><path
             d="m 12.780832,-12.939819 h 1.880738 l 3.588134,5.3215329 3.562134,-5.3215329 h 1.880737 l -4.576171,6.7775876 V 0 h -1.7594 v -6.1622314 z"
             id="path54" /><path
             d="m 27.810297,-11.501099 v 4.862183 h 2.201416 q 1.222046,0 1.889404,-0.6326904 0.667359,-0.6326905 0.667359,-1.8027344 0,-1.1613772 -0.667359,-1.7940672 -0.667358,-0.632691 -1.889404,-0.632691 z m -1.750732,-1.43872 h 3.952148 q 2.175415,0 3.28479,0.988037 1.118042,0.97937 1.118042,2.8774412 0,1.9154053 -1.118042,2.8947754 -1.109375,0.9793701 -3.28479,0.9793701 H 27.810297 V 0 h -1.750732 z"
             id="path56" /><path
             d="m 37.561565,-12.939819 h 1.750733 v 5.3041989 h 6.361572 v -5.3041989 h 1.750733 V 0 H 45.67387 V -6.1622314 H 39.312298 V 0 h -1.750733 z"
             id="path58" /><path
             d="m 50.377064,-12.939819 h 8.18164 v 1.473388 h -6.430908 v 3.8308109 h 6.162232 v 1.4733887 h -6.162232 v 4.6888427 H 58.71471 V 0 h -8.337646 z"
             id="path60" /><path
             d="m 67.358547,-6.0668945 q 0.563355,0.1906738 1.092041,0.8146972 0.537354,0.6240235 1.074707,1.7160645 L 71.302029,0 H 69.421291 L 67.765896,-3.319458 Q 67.124538,-4.6195068 66.517849,-5.0441895 65.919827,-5.4688721 64.879787,-5.4688721 H 62.973049 V 0 h -1.750732 v -12.939819 h 3.952148 q 2.21875,0 3.310791,0.927368 1.092041,0.927368 1.092041,2.7994383 0,1.2220459 -0.572021,2.0280762 -0.563355,0.8060303 -1.646729,1.118042 z m -4.385498,-5.4342045 v 4.5935062 h 2.201416 q 1.265381,0 1.906738,-0.5806884 0.650025,-0.5893555 0.650025,-1.7247315 0,-1.1353763 -0.650025,-1.7073973 -0.641357,-0.580689 -1.906738,-0.580689 z"
             id="path62" /></g></g></g><g
       id="g24"><g
         id="g26"
         clip-path="url(#clipPath30)"><g
           aria-label="BLOCK"
           transform="matrix(1,0,0,-1,27.791,5.6709)"
           id="text34"
           style="font-variant:normal;font-weight:normal;font-stretch:normal;font-size:17.75px;font-family:HelveticaNeue;-inkscape-font-specification:HelveticaNeue;writing-mode:lr-tb;fill:#8854d0;fill-opacity:1;fill-rule:nonzero;stroke:none"><path
             d="m 3.4927979,-6.1795654 v 4.7408447 h 2.8081054 q 1.4127197,0 2.0887451,-0.5806885 0.6846924,-0.5893554 0.6846924,-1.7940674 0,-1.2133789 -0.6846924,-1.7854004 Q 7.713623,-6.1795654 6.3009033,-6.1795654 Z m 0,-5.3215336 v 3.9001469 h 2.5914306 q 1.2827149,0 1.9067383,-0.4766846 0.6326904,-0.4853516 0.6326904,-1.4733887 0,-0.9793706 -0.6326904,-1.4647216 -0.6240234,-0.485352 -1.9067383,-0.485352 z m -1.7507325,-1.43872 h 4.472168 q 2.0020752,0 3.0854492,0.832031 1.0833744,0.832031 1.0833744,2.3660888 0,1.1873779 -0.5546879,1.8894043 -0.5546875,0.7020263 -1.6293945,0.8753662 1.2913818,0.2773437 2.0020754,1.1613769 0.71936,0.8753663 0.71936,2.1927491 0,1.7333984 -1.1787108,2.67810055 Q 8.5629883,0 6.3875732,0 H 1.7420654 Z"
             id="path65" /><path
             d="m 13.900815,-12.939819 h 1.750732 v 11.4664303 h 6.300904 V 0 h -8.051636 z"
             id="path67" /><path
             d="m 29.022013,-11.752441 q -1.906739,0 -3.033448,1.421386 -1.118042,1.421387 -1.118042,3.8741458 0,2.4440918 1.118042,3.8654785 1.126709,1.4213868 3.033448,1.4213868 1.906738,0 3.016113,-1.4213868 1.118042,-1.4213867 1.118042,-3.8654785 0,-2.4527588 -1.118042,-3.8741458 -1.109375,-1.421386 -3.016113,-1.421386 z m 0,-1.421387 q 2.721435,0 4.35083,1.828735 1.629394,1.8200686 1.629394,4.8881838 0,3.0594483 -1.629394,4.8881836 -1.629395,1.82006837 -4.35083,1.82006837 -2.730103,0 -4.368164,-1.82006837 -1.629395,-1.8200683 -1.629395,-4.8881836 0,-3.0681152 1.629395,-4.8881838 1.638061,-1.828735 4.368164,-1.828735 z"
             id="path69" /><path
             d="m 46.949512,-11.943115 v 1.846069 q -0.884033,-0.823364 -1.889404,-1.230713 -0.996704,-0.407348 -2.123413,-0.407348 -2.21875,0 -3.397461,1.360717 -1.178711,1.3520511 -1.178711,3.9174808 0,2.5567627 1.178711,3.9174805 1.178711,1.3520508 3.397461,1.3520508 1.126709,0 2.123413,-0.4073487 1.005371,-0.4073486 1.889404,-1.2307129 v 1.8287354 q -0.918701,0.62402344 -1.950073,0.93603515 -1.022705,0.31201172 -2.166748,0.31201172 -2.93811,0 -4.628174,-1.79406737 -1.690063,-1.8027344 -1.690063,-4.9141846 0,-3.1201172 1.690063,-4.9141848 1.690064,-1.802734 4.628174,-1.802734 1.161377,0 2.184082,0.312012 1.031372,0.303344 1.932739,0.918701 z"
             id="path71" /><path
             d="m 50.075314,-12.939819 h 1.750732 v 5.4688717 l 5.806885,-5.4688717 h 2.253418 L 53.464108,-6.9075928 60.345699,0 h -2.30542 L 51.826046,-6.2315674 V 0 h -1.750732 z"
             id="path73" /></g></g></g><g
       id="g36"><g
         id="g38"
         clip-path="url(#clipPath42)"><g
           id="g44"
           transform="translate(11.4063,19.9856)"><path
             d="m 0,0 c 0.036,-0.038 0.132,-0.225 0.213,-0.417 0.082,-0.191 0.194,-0.424 0.249,-0.515 0.185,-0.306 0.522,-0.572 0.915,-0.718 0.173,-0.065 0.197,-0.067 0.587,-0.067 0.381,0.002 0.419,0.005 0.587,0.064 0.258,0.094 0.491,0.242 0.682,0.436 0.18,0.182 0.314,0.419 0.515,0.91 0.127,0.307 0.19,0.372 0.372,0.372 0.1,0 0.186,-0.024 0.354,-0.094 0.12,-0.052 0.501,-0.208 0.843,-0.349 C 5.66,-0.52 5.983,-0.654 6.036,-0.678 6.088,-0.699 6.194,-0.745 6.27,-0.776 6.582,-0.901 6.622,-1.063 6.443,-1.49 6.385,-1.629 6.301,-1.847 6.261,-1.971 6.191,-2.175 6.184,-2.227 6.187,-2.462 6.189,-2.865 6.292,-3.169 6.534,-3.48 c 0.151,-0.194 0.239,-0.283 0.429,-0.426 0.316,-0.238 0.653,-0.343 1.061,-0.331 0.328,0.01 0.388,0.026 0.862,0.23 0.232,0.101 0.314,0.125 0.426,0.127 0.23,0.002 0.247,-0.022 0.604,-0.905 0.129,-0.317 0.388,-0.937 0.519,-1.248 0.063,-0.146 0.072,-0.194 0.063,-0.312 -0.015,-0.182 -0.065,-0.222 -0.479,-0.39 C 9.588,-6.91 9.422,-7.006 9.228,-7.188 8.838,-7.557 8.646,-8.107 8.706,-8.682 c 0.029,-0.278 0.106,-0.506 0.249,-0.74 0.213,-0.352 0.451,-0.537 0.985,-0.764 0.474,-0.204 0.488,-0.211 0.527,-0.285 0.057,-0.113 0.045,-0.273 -0.034,-0.453 -0.055,-0.129 -0.462,-1.114 -0.618,-1.49 -0.038,-0.098 -0.055,-0.139 -0.16,-0.383 -0.125,-0.292 -0.273,-0.35 -0.573,-0.225 -0.081,0.033 -0.158,0.065 -0.172,0.067 -0.012,0.005 -0.077,0.031 -0.144,0.06 -0.34,0.153 -0.462,0.182 -0.79,0.182 -0.266,0 -0.336,-0.01 -0.479,-0.058 -0.364,-0.122 -0.657,-0.325 -0.927,-0.644 -0.039,-0.041 -0.067,-0.081 -0.067,-0.091 0,-0.007 -0.031,-0.057 -0.067,-0.112 -0.082,-0.12 -0.158,-0.309 -0.211,-0.52 -0.029,-0.118 -0.036,-0.223 -0.026,-0.431 0.011,-0.3 0.052,-0.448 0.253,-0.913 0.108,-0.251 0.125,-0.402 0.065,-0.522 -0.043,-0.081 -0.098,-0.12 -0.302,-0.201 -0.292,-0.118 -0.754,-0.307 -0.802,-0.328 -0.026,-0.012 -0.216,-0.091 -0.419,-0.178 -0.879,-0.366 -0.858,-0.359 -1.018,-0.292 -0.091,0.039 -0.125,0.096 -0.261,0.434 -0.264,0.656 -0.52,0.965 -0.975,1.181 -0.266,0.126 -0.426,0.158 -0.8,0.16 -0.369,0 -0.493,-0.026 -0.778,-0.16 -0.46,-0.221 -0.683,-0.499 -1.002,-1.263 -0.124,-0.304 -0.177,-0.361 -0.342,-0.378 -0.089,-0.007 -0.165,0.014 -0.477,0.146 -0.512,0.213 -1.513,0.628 -1.693,0.702 -0.089,0.036 -0.18,0.093 -0.223,0.141 -0.107,0.125 -0.098,0.232 0.046,0.58 0.223,0.527 0.249,0.627 0.251,0.951 0.003,0.304 -0.031,0.474 -0.143,0.718 -0.091,0.201 -0.13,0.256 -0.305,0.453 -0.33,0.373 -0.783,0.603 -1.238,0.63 -0.201,0.012 -0.302,0.002 -0.527,-0.051 -0.033,-0.007 -0.237,-0.086 -0.452,-0.172 -0.642,-0.259 -0.652,-0.252 -0.982,0.577 -0.082,0.204 -0.477,1.152 -0.585,1.401 -0.055,0.132 -0.077,0.216 -0.077,0.316 0,0.209 0.027,0.23 0.573,0.455 0.129,0.053 0.311,0.142 0.402,0.192 0.417,0.242 0.731,0.721 0.812,1.246 0.034,0.205 0.015,0.548 -0.038,0.749 -0.034,0.13 -0.18,0.462 -0.232,0.527 -0.01,0.012 -0.06,0.074 -0.108,0.137 -0.197,0.242 -0.419,0.39 -0.858,0.57 -0.416,0.17 -0.486,0.208 -0.527,0.285 -0.055,0.107 -0.043,0.246 0.034,0.426 0.038,0.091 0.153,0.362 0.254,0.606 0.1,0.244 0.203,0.491 0.227,0.551 0.027,0.06 0.118,0.28 0.204,0.491 0.089,0.211 0.182,0.407 0.208,0.438 0.063,0.065 0.209,0.108 0.3,0.086 0.036,-0.007 0.222,-0.076 0.414,-0.153 0.419,-0.165 0.486,-0.189 0.625,-0.206 0.132,-0.014 0.472,-0.014 0.498,0 0.01,0.007 0.053,0.019 0.094,0.026 0.412,0.072 0.862,0.393 1.152,0.822 0.191,0.285 0.309,0.726 0.28,1.044 -0.024,0.252 -0.067,0.398 -0.29,0.937 -0.105,0.254 -0.108,0.4 -0.009,0.505 0.067,0.072 0.043,0.062 0.764,0.355 0.151,0.062 0.313,0.129 0.359,0.148 0.898,0.388 1.092,0.46 1.238,0.462 C -0.079,0.065 -0.055,0.057 0,0 M -7.844,2.218 C -8.275,2.146 -8.649,1.78 -8.742,1.341 c -0.053,-0.244 -0.053,-19.41 0,-19.654 0.067,-0.318 0.299,-0.625 0.584,-0.771 0.278,-0.139 -0.402,-0.132 10.11,-0.132 10.61,0 9.839,-0.009 10.131,0.146 0.173,0.091 0.379,0.302 0.467,0.474 0.139,0.278 0.132,-0.402 0.132,10.11 0,8.304 -0.005,9.688 -0.036,9.827 -0.096,0.451 -0.467,0.805 -0.922,0.877 -0.199,0.033 -19.374,0.031 -19.568,0"
             style="fill:#8854d0;fill-opacity:1;fill-rule:nonzero;stroke:none"
             id="path46" /></g><g
           id="g48"
           transform="translate(13.0829,16.0601)"><path
             d="m 0,0 c -0.362,-0.036 -0.587,-0.072 -0.836,-0.134 -1.638,-0.412 -2.915,-1.691 -3.317,-3.329 -0.103,-0.419 -0.129,-0.645 -0.129,-1.109 0.002,-0.762 0.148,-1.38 0.488,-2.05 0.606,-1.193 1.679,-2.048 2.972,-2.367 0.417,-0.103 0.645,-0.129 1.097,-0.129 0.453,0 0.681,0.026 1.097,0.129 1.792,0.441 3.136,1.916 3.421,3.758 0.047,0.302 0.052,0.975 0.012,1.27 C 4.524,-1.945 2.956,-0.345 0.963,-0.048 0.723,-0.012 0.165,0.017 0,0"
             style="fill:#8854d0;fill-opacity:1;fill-rule:nonzero;stroke:none"
             id="path50" /></g></g></g></g></svg>
